<?xml version="1.0" standalone="no"?>
<!DOCTYPE svg PUBLIC "-//W3C//DTD SVG 20010904//EN"
 "http://www.w3.org/TR/2001/REC-SVG-20010904/DTD/svg10.dtd">
<svg version="1.0" xmlns="http://www.w3.org/2000/svg"
 width="160.000000pt" height="160.000000pt" viewBox="0 0 160.000000 160.000000"
 preserveAspectRatio="xMidYMid meet">

<g transform="translate(0.000000,160.000000) scale(0.100000,-0.100000)"
fill="#000000" stroke="none">
<path d="M75 1565 l-25 -24 0 -700 c0 -385 3 -707 6 -716 16 -42 46 -45 407
-45 274 0 347 3 356 13 27 34 -6 37 -359 37 -256 0 -349 3 -358 12 -9 9 -12
177 -12 694 0 607 2 684 16 698 14 14 74 16 515 16 l499 0 0 -101 c0 -98 1
-101 29 -130 29 -29 31 -29 140 -29 l110 0 3 -279 c2 -154 6 -283 10 -286 4
-4 14 -5 23 -2 13 6 15 45 15 304 l0 298 -148 132 -147 132 -528 1 -528 0 -24
-25z m1220 -160 l70 -65 -95 3 -95 2 -3 83 -3 84 28 -21 c15 -11 60 -50 98
-86z"/>
<path d="M432 1135 c-35 -41 -68 -75 -73 -75 -5 0 -28 13 -50 30 -42 30 -59
31 -59 5 0 -20 104 -97 121 -89 20 8 154 170 154 185 0 35 -35 14 -93 -56z"/>
<path d="M707 1163 c-4 -3 -7 -12 -7 -20 0 -10 53 -13 276 -13 257 0 275 1
272 18 -3 16 -25 17 -269 20 -146 1 -268 -1 -272 -5z"/>
<path d="M434 843 c-38 -43 -69 -80 -71 -82 -1 -2 -21 11 -45 28 -47 35 -68
39 -68 14 1 -18 94 -93 115 -93 15 0 157 167 159 187 3 36 -25 19 -90 -54z"/>
<path d="M707 853 c-4 -3 -7 -12 -7 -20 0 -10 53 -13 276 -13 257 0 275 1 272
18 -3 16 -25 17 -269 20 -146 1 -268 -1 -272 -5z"/>
<path d="M1145 673 c-14 -76 -56 -96 -122 -57 l-45 26 -34 -33 c-40 -38 -40
-43 -14 -76 41 -52 19 -103 -50 -120 -32 -9 -35 -12 -38 -52 -4 -50 4 -61 49
-70 18 -4 41 -18 53 -34 l21 -28 -24 -45 -24 -45 35 -36 36 -36 35 22 c64 39
102 24 122 -48 10 -35 12 -36 60 -36 47 0 51 2 60 31 6 17 16 38 24 47 17 22
65 22 97 0 25 -16 26 -15 61 20 l36 36 -24 45 -24 45 21 28 c12 16 35 30 53
34 45 9 53 20 49 70 -3 40 -6 43 -38 52 -69 17 -91 68 -50 120 26 33 26 38
-14 76 l-34 33 -39 -23 c-65 -37 -100 -18 -117 64 -6 25 -10 27 -60 27 l-54 0
-7 -37z m93 -32 c7 -21 23 -46 37 -55 30 -20 93 -20 119 -1 17 13 22 13 36 0
16 -15 16 -18 -2 -55 -14 -27 -18 -49 -13 -69 7 -34 57 -81 86 -81 14 0 19 -7
19 -25 0 -20 -6 -27 -30 -32 -65 -12 -99 -93 -65 -153 12 -22 11 -27 -1 -42
-14 -14 -19 -14 -42 -2 -15 8 -39 14 -54 14 -33 0 -84 -41 -92 -75 -10 -37
-52 -35 -61 4 -14 65 -85 95 -147 63 -34 -18 -38 -18 -52 -3 -12 14 -13 20 -1
41 34 60 0 141 -65 153 -24 5 -30 12 -30 32 0 18 5 25 19 25 29 0 79 47 86 81
5 20 1 42 -13 69 -18 37 -18 41 -3 54 15 14 20 13 46 -4 63 -42 147 -7 161 66
5 27 11 34 29 34 17 0 24 -9 33 -39z"/>
<path d="M1143 475 c-122 -53 -77 -245 57 -245 135 0 179 194 55 246 -43 17
-71 17 -112 -1z m109 -36 c11 -6 26 -26 34 -45 20 -48 -1 -99 -51 -119 -31
-14 -39 -14 -70 0 -50 20 -71 71 -51 119 8 19 22 39 33 45 24 14 79 14 105 0z"/>
<path d="M439 577 c-35 -40 -66 -76 -70 -81 -4 -4 -28 6 -52 23 -52 35 -67 38
-67 13 0 -19 90 -92 113 -92 15 0 167 171 167 188 0 5 -6 12 -14 15 -10 4 -37
-20 -77 -66z"/>
<path d="M702 573 c3 -15 13 -18 63 -18 47 0 60 3 60 15 0 11 -15 16 -63 18
-57 3 -63 1 -60 -15z"/>
</g>
</svg>
