<svg xmlns="http://www.w3.org/2000/svg" viewBox="0 0 59.5 59.5"><title>cf-icon-knowledge-talent</title><g id="Layer_2" data-name="Layer 2"><g id="Layer_1-2" data-name="Layer 1"><g id="cf-icon-knowledge-talent"><circle id="Oval" cx="29.75" cy="8.75" r="8" style="fill:none;stroke:#2f3641;stroke-linecap:round;stroke-linejoin:round;stroke-width:1.5000000177186017px"/><path id="Shape" d="M33.75,15.67v-1.5a3.15,3.15,0,0,0-1.18-2.41,4.28,4.28,0,0,0-2.82-1,3.75,3.75,0,0,0-4,3.42v1.5" style="fill:none;stroke:#2f3641;stroke-linecap:round;stroke-linejoin:round;stroke-width:1.5000000177186017px"/><circle cx="29.75" cy="7.75" r="3" style="fill:none;stroke:#2f3641;stroke-linecap:round;stroke-linejoin:round;stroke-width:1.5000000177186017px"/><circle cx="8.75" cy="50.75" r="8" style="fill:none;stroke:#2f3641;stroke-linecap:round;stroke-linejoin:round;stroke-width:1.5000000177186017px"/><path d="M12.75,57.67v-1.5a3.15,3.15,0,0,0-1.18-2.41,4.28,4.28,0,0,0-2.82-1,3.75,3.75,0,0,0-4,3.42v1.5" style="fill:none;stroke:#2f3641;stroke-linecap:round;stroke-linejoin:round;stroke-width:1.5000000177186017px"/><circle cx="8.75" cy="49.75" r="3" style="fill:none;stroke:#2f3641;stroke-linecap:round;stroke-linejoin:round;stroke-width:1.5000000177186017px"/><circle cx="10.75" cy="24.75" r="8" style="fill:none;stroke:#2f3641;stroke-linecap:round;stroke-linejoin:round;stroke-width:1.5000000177186017px"/><path d="M14.75,31.67v-1.5a3.15,3.15,0,0,0-1.18-2.41,4.28,4.28,0,0,0-2.82-1,3.75,3.75,0,0,0-4,3.42v1.5" style="fill:none;stroke:#2f3641;stroke-linecap:round;stroke-linejoin:round;stroke-width:1.5000000177186017px"/><circle cx="10.75" cy="23.75" r="3" style="fill:none;stroke:#2f3641;stroke-linecap:round;stroke-linejoin:round;stroke-width:1.5000000177186017px"/><circle cx="48.75" cy="24.75" r="8" style="fill:none;stroke:#2f3641;stroke-linecap:round;stroke-linejoin:round;stroke-width:1.5000000177186017px"/><path d="M52.75,31.67v-1.5a3.15,3.15,0,0,0-1.18-2.41,4.28,4.28,0,0,0-2.82-1,3.75,3.75,0,0,0-4,3.42v1.5" style="fill:none;stroke:#2f3641;stroke-linecap:round;stroke-linejoin:round;stroke-width:1.5000000177186017px"/><circle cx="48.75" cy="23.75" r="3" style="fill:none;stroke:#2f3641;stroke-linecap:round;stroke-linejoin:round;stroke-width:1.5000000177186017px"/><circle cx="50.75" cy="50.75" r="8" style="fill:none;stroke:#2f3641;stroke-linecap:round;stroke-linejoin:round;stroke-width:1.5000000177186017px"/><path d="M54.75,57.67v-1.5a3.15,3.15,0,0,0-1.18-2.41,4.28,4.28,0,0,0-2.82-1,3.75,3.75,0,0,0-4,3.42v1.5" style="fill:none;stroke:#2f3641;stroke-linecap:round;stroke-linejoin:round;stroke-width:1.5000000177186017px"/><circle cx="50.75" cy="49.75" r="3" style="fill:none;stroke:#2f3641;stroke-linecap:round;stroke-linejoin:round;stroke-width:1.5000000177186017px"/><path d="M20.75,32.75l-3.72-3" style="fill:none;stroke:#2f3641;stroke-linecap:round;stroke-linejoin:round;stroke-width:1.5000000177186017px"/><path d="M29.75,27.75v-11" style="fill:none;stroke:#2f3641;stroke-linecap:round;stroke-linejoin:round;stroke-width:1.5000000177186017px"/><path d="M19.75,44.75,15.83,47" style="fill:none;stroke:#2f3641;stroke-linecap:round;stroke-linejoin:round;stroke-width:1.5000000177186017px"/><path d="M43.67,47l-3.92-2.29" style="fill:none;stroke:#2f3641;stroke-linecap:round;stroke-linejoin:round;stroke-width:1.5000000177186017px"/><path d="M42.47,29.71l-3.72,3" style="fill:none;stroke:#2f3641;stroke-linecap:round;stroke-linejoin:round;stroke-width:1.5000000177186017px"/><circle cx="29.75" cy="39.75" r="11" style="fill:none;stroke:#0c87ce;stroke-linecap:round;stroke-linejoin:round;stroke-width:2px"/><path d="M35.24,48.79V46.73a4.29,4.29,0,0,0-1.62-3.31A5.83,5.83,0,0,0,29.75,42a5.13,5.13,0,0,0-5.49,4.7v2.06" style="fill:none;stroke:#0c87ce;stroke-linecap:round;stroke-linejoin:round;stroke-width:2px"/><circle cx="29.75" cy="37.91" r="4.12" style="fill:none;stroke:#0c87ce;stroke-linecap:round;stroke-linejoin:round;stroke-width:2px"/></g></g></g></svg>