<svg xmlns="http://www.w3.org/2000/svg" viewBox="0 0 63.03 59.75"><title>cf-icon-workstream-people</title><g id="Layer_2" data-name="Layer 2"><g id="Layer_1-2" data-name="Layer 1"><g id="cf-icon-workstream-people"><polygon id="Stroke-899" points="10.29 9.91 12.94 15.22 19.58 15.22 14.27 19.2 15.6 25.83 10.29 21.87 4.98 25.83 6.31 19.2 1 15.22 7.63 15.22 10.29 9.91" style="fill:none;stroke:#0c87ce;stroke-linecap:round;stroke-linejoin:round;stroke-width:2.00087180961985px"/><polygon id="Stroke-900" points="31.52 1 34.93 7.82 43.46 7.82 36.63 12.94 38.34 21.47 31.52 16.38 24.69 21.47 26.4 12.94 19.58 7.82 28.11 7.82 31.52 1" style="fill:none;stroke:#0c87ce;stroke-linecap:round;stroke-linejoin:round;stroke-width:2.00087180961985px"/><polygon id="Stroke-901" points="52.75 9.91 55.4 15.22 62.03 15.22 56.73 19.2 58.05 25.83 52.75 21.87 47.44 25.83 48.77 19.2 43.46 15.22 50.09 15.22 52.75 9.91" style="fill:none;stroke:#0c87ce;stroke-linecap:round;stroke-linejoin:round;stroke-width:2.00087180961985px"/><circle cx="13.38" cy="39.1" r="6.63" style="fill:none;stroke:#2f3641;stroke-linecap:round;stroke-linejoin:round;stroke-width:1.5px"/><path d="M19.94,48.21a9.95,9.95,0,0,0-16.51,7V59H20.67" style="fill:none;stroke:#2f3641;stroke-linecap:round;stroke-linejoin:round;stroke-width:1.5px"/><circle cx="31.52" cy="33.77" r="8.29" style="fill:none;stroke:#2f3641;stroke-linecap:round;stroke-linejoin:round;stroke-width:1.5px"/><path d="M19.08,59V54.26a12.45,12.45,0,0,1,24.88,0V59Z" style="fill:none;stroke:#2f3641;stroke-linecap:round;stroke-linejoin:round;stroke-width:1.5px"/><circle cx="49.66" cy="39.1" r="6.63" style="fill:none;stroke:#2f3641;stroke-linecap:round;stroke-linejoin:round;stroke-width:1.5px"/><path d="M43.09,48.21a10,10,0,0,1,16.52,7V59H42.36" style="fill:none;stroke:#2f3641;stroke-linecap:round;stroke-linejoin:round;stroke-width:1.5px"/></g></g></g></svg>